<?xml version="1.0" encoding="UTF-8" standalone="no"?>
<!DOCTYPE svg PUBLIC "-//W3C//DTD SVG 1.1//EN" "http://www.w3.org/Graphics/SVG/1.1/DTD/svg11.dtd">
<svg width="100%" height="100%" viewBox="0 0 818 622" version="1.1" xmlns="http://www.w3.org/2000/svg" xmlns:xlink="http://www.w3.org/1999/xlink" xml:space="preserve" xmlns:serif="http://www.serif.com/" style="fill-rule:evenodd;clip-rule:evenodd;stroke-linejoin:round;stroke-miterlimit:2;">
    <g transform="matrix(1,0,0,1,-275.2,-858.22)">
        <g transform="matrix(2,0,0,2,0,-4936.38)">
            <path d="M354.833,3102.27C332.129,3128.38 298.676,3144.89 261.398,3144.89C193.072,3144.89 137.6,3089.42 137.6,3021.09C137.6,2952.77 193.072,2897.3 261.398,2897.3C298.676,2897.3 332.129,2913.81 354.833,2939.91C364.284,2936.37 374.516,2934.43 385.196,2934.43C405.979,2934.43 425.063,2941.77 440,2953.98C449.656,2949.39 460.457,2946.81 471.855,2946.81C512.851,2946.81 546.134,2980.1 546.134,3021.09C546.134,3062.09 512.851,3095.37 471.855,3095.37C460.457,3095.37 449.656,3092.8 440,3088.2C425.063,3100.42 405.979,3107.75 385.196,3107.75C374.516,3107.75 364.284,3105.82 354.833,3102.27Z" style="fill:rgb(53,164,255);"/>
        </g>
        <g transform="matrix(-85.4408,-91.9706,-91.9706,85.4408,515.611,1236.67)">
            <path d="M1.733,-1.694C1.46,-1.986 1.148,-2.099 0.803,-2.13C0.503,-2.158 0.081,-2.037 -0.142,-1.83L-0.152,-1.821C-0.197,-1.769 -0.216,-1.697 -0.199,-1.633C-0.172,-1.538 -0.067,-1.472 0.031,-1.492C0.087,-1.504 0.097,-1.504 0.14,-1.541C0.403,-1.767 0.802,-1.782 1.086,-1.666C1.402,-1.537 1.609,-1.294 1.689,-0.957C1.768,-0.627 1.644,-0.26 1.396,-0.029L1.386,-0.019C1.378,-0.01 1.376,-0.008 1.369,0.002C1.312,0.082 1.329,0.206 1.406,0.268C1.481,0.33 1.598,0.322 1.671,0.254C1.675,0.25 1.68,0.246 1.684,0.242C2.017,-0.08 2.172,-0.579 2.075,-1.039C2.025,-1.278 1.908,-1.503 1.742,-1.685C1.739,-1.688 1.736,-1.691 1.733,-1.694Z" style="fill:url(#_Linear1);"/>
        </g>
        <g transform="matrix(2,0,0,2,0,-4845.86)">
            <path d="M174.739,3064.18L174.739,2976.11C174.733,2976.05 174.679,2975.44 174.852,2974.17C174.895,2973.85 174.952,2973.54 175.022,2973.23C176.159,2968.16 180.713,2963.98 186.02,2963.5C187.433,2963.38 187.766,2963.48 188.218,2963.5C188.866,2963.58 189.03,2963.58 189.669,2963.72C189.8,2963.75 189.931,2963.78 190.061,2963.81C190.188,2963.84 190.314,2963.87 190.44,2963.91C192.294,2964.42 193.993,2965.41 195.405,2966.71C197.558,2968.68 199.058,2971.39 199.412,2974.37C199.449,2974.68 199.466,2974.88 199.476,2975.07C199.74,2978.92 199.764,2982.8 200.433,2986.6C204.949,3012.33 227.121,3034.13 254.087,3037.31C266.938,3038.82 280.249,3036.22 291.535,3029.9C310.675,3019.2 323.262,2998.13 323.297,2975.81L323.306,2975.57C323.301,2975.39 323.3,2975.22 323.302,2975.04C323.58,2953.08 336.331,2931.94 355.689,2921.42C364.76,2916.49 375.026,2913.92 385.395,2913.93C405.567,2914.03 425.128,2924.68 436.555,2941.39C441.698,2936.02 448.012,2931.77 455.117,2929.22C460.573,2927.26 466.379,2926.3 472.174,2926.31C492.501,2926.51 512.052,2940.13 518.767,2959.95C520.494,2965.05 521.357,2970.44 521.374,2975.81L521.374,2988.25C521.223,2994.48 516.141,3000.14 509.891,3000.59C503.177,3001.08 496.787,2995.37 496.615,2988.25C496.615,2975.81 496.653,2988.1 496.614,2975.67C496.515,2965.18 489.127,2955.2 479.069,2952.14C470.723,2949.6 461.097,2951.89 454.779,2957.91C449.944,2962.52 447.117,2969.05 447.095,2975.85L447.095,2988.25C446.945,2994.48 441.862,3000.14 435.612,3000.59C428.898,3001.08 422.508,2995.37 422.336,2988.25L422.336,2975.81C422.336,2975.6 422.322,2974.82 422.317,2974.63C421.759,2957.9 408.748,2942.36 391.892,2939.3C379.69,2937.07 366.479,2941.45 358.011,2950.54C351.744,2957.27 348.131,2966.36 348.057,2975.59L348.05,2975.94C348.054,2976.09 348.056,2976.24 348.055,2976.39C348.052,2976.86 348.045,2977.32 348.035,2977.78C347.338,3009.23 328.219,3039.61 299.438,3053.7C274.698,3065.82 244.097,3065.16 219.862,3051.89C212.304,3047.76 205.451,3042.42 199.499,3036.19L199.499,3083.01C190.454,3077.78 182.132,3071.43 174.739,3064.18Z" style="fill:white;"/>
        </g>
        <g transform="matrix(1.95538,0,0,0.938449,7.6399,740.947)">
            <g transform="matrix(42.243,0,0,88.0186,171.207,766.728)">
                <path d="M0.365,-0.551C0.416,-0.551 0.463,-0.539 0.506,-0.515C0.548,-0.49 0.581,-0.457 0.605,-0.415C0.629,-0.372 0.641,-0.325 0.641,-0.273C0.641,-0.221 0.63,-0.174 0.608,-0.132C0.585,-0.089 0.555,-0.056 0.516,-0.032C0.476,-0.008 0.433,0.004 0.385,0.004C0.346,0.004 0.31,-0.004 0.277,-0.02C0.244,-0.036 0.215,-0.058 0.192,-0.087L0.192,0.183C0.192,0.198 0.187,0.211 0.178,0.22C0.169,0.229 0.156,0.234 0.141,0.234C0.126,0.234 0.114,0.229 0.105,0.22C0.095,0.211 0.09,0.198 0.09,0.183L0.09,-0.273C0.09,-0.325 0.102,-0.372 0.127,-0.415C0.151,-0.457 0.184,-0.49 0.226,-0.515C0.267,-0.539 0.314,-0.551 0.365,-0.551ZM0.365,-0.086C0.398,-0.086 0.429,-0.094 0.456,-0.111C0.483,-0.127 0.504,-0.149 0.52,-0.178C0.535,-0.206 0.543,-0.238 0.543,-0.273C0.543,-0.308 0.535,-0.34 0.52,-0.369C0.504,-0.398 0.483,-0.42 0.456,-0.437C0.429,-0.453 0.398,-0.461 0.365,-0.461C0.332,-0.461 0.302,-0.453 0.275,-0.437C0.248,-0.42 0.226,-0.398 0.211,-0.369C0.196,-0.34 0.188,-0.308 0.188,-0.273C0.188,-0.238 0.196,-0.206 0.211,-0.178C0.226,-0.149 0.248,-0.127 0.275,-0.111C0.302,-0.094 0.332,-0.086 0.365,-0.086Z" style="fill:rgb(128,128,128);fill-rule:nonzero;"/>
            </g>
            <g transform="matrix(42.243,0,0,88.0186,200.905,766.728)">
                <path d="M0.338,-0.551C0.389,-0.551 0.436,-0.539 0.478,-0.515C0.519,-0.49 0.552,-0.457 0.577,-0.415C0.601,-0.372 0.613,-0.325 0.613,-0.273L0.613,-0.05C0.613,-0.035 0.608,-0.023 0.599,-0.014C0.589,-0.004 0.577,0.001 0.562,0.001C0.547,0.001 0.535,-0.004 0.526,-0.014C0.516,-0.023 0.511,-0.035 0.511,-0.05L0.511,-0.087C0.488,-0.058 0.459,-0.036 0.426,-0.02C0.393,-0.004 0.357,0.004 0.318,0.004C0.27,0.004 0.227,-0.008 0.188,-0.032C0.149,-0.056 0.118,-0.089 0.096,-0.132C0.073,-0.174 0.062,-0.221 0.062,-0.273C0.062,-0.325 0.074,-0.372 0.098,-0.415C0.122,-0.457 0.155,-0.49 0.198,-0.515C0.24,-0.539 0.287,-0.551 0.338,-0.551ZM0.338,-0.086C0.371,-0.086 0.401,-0.094 0.429,-0.111C0.456,-0.127 0.477,-0.149 0.492,-0.178C0.507,-0.206 0.515,-0.238 0.515,-0.273C0.515,-0.308 0.507,-0.34 0.492,-0.369C0.477,-0.398 0.456,-0.42 0.429,-0.437C0.401,-0.453 0.371,-0.461 0.338,-0.461C0.305,-0.461 0.275,-0.453 0.248,-0.437C0.221,-0.42 0.199,-0.398 0.184,-0.369C0.168,-0.34 0.16,-0.308 0.16,-0.273C0.16,-0.238 0.168,-0.206 0.184,-0.178C0.199,-0.149 0.221,-0.127 0.248,-0.111C0.275,-0.094 0.305,-0.086 0.338,-0.086Z" style="fill:rgb(128,128,128);fill-rule:nonzero;"/>
            </g>
            <g transform="matrix(42.243,0,0,88.0186,229.421,766.728)">
                <path d="M0.362,-0.552C0.408,-0.552 0.449,-0.542 0.486,-0.522C0.523,-0.502 0.551,-0.473 0.572,-0.435C0.593,-0.396 0.603,-0.35 0.603,-0.296L0.603,-0.05C0.603,-0.035 0.598,-0.023 0.589,-0.014C0.579,-0.004 0.567,0.001 0.552,0.001C0.537,0.001 0.525,-0.004 0.516,-0.014C0.506,-0.023 0.501,-0.035 0.501,-0.05L0.501,-0.296C0.501,-0.35 0.487,-0.391 0.458,-0.419C0.429,-0.446 0.39,-0.46 0.342,-0.46C0.314,-0.46 0.289,-0.454 0.266,-0.443C0.243,-0.432 0.225,-0.416 0.212,-0.397C0.199,-0.378 0.192,-0.356 0.192,-0.332L0.192,-0.05C0.192,-0.035 0.187,-0.023 0.178,-0.014C0.169,-0.004 0.156,0.001 0.141,0.001C0.126,0.001 0.114,-0.004 0.105,-0.014C0.095,-0.023 0.09,-0.035 0.09,-0.05L0.09,-0.496C0.09,-0.511 0.095,-0.524 0.105,-0.533C0.114,-0.542 0.126,-0.547 0.141,-0.547C0.156,-0.547 0.169,-0.542 0.178,-0.533C0.187,-0.524 0.192,-0.511 0.192,-0.496L0.192,-0.485C0.213,-0.506 0.239,-0.523 0.268,-0.535C0.297,-0.546 0.329,-0.552 0.362,-0.552Z" style="fill:rgb(128,128,128);fill-rule:nonzero;"/>
            </g>
            <g transform="matrix(42.243,0,0,88.0186,258.232,766.728)">
                <path d="M0.338,-0.551C0.391,-0.551 0.438,-0.539 0.48,-0.516C0.521,-0.492 0.554,-0.459 0.578,-0.417C0.601,-0.375 0.613,-0.327 0.613,-0.273C0.613,-0.22 0.601,-0.172 0.578,-0.13C0.555,-0.088 0.522,-0.055 0.481,-0.032C0.439,-0.008 0.391,0.004 0.338,0.004C0.285,0.004 0.237,-0.008 0.195,-0.032C0.153,-0.055 0.12,-0.088 0.097,-0.13C0.074,-0.172 0.062,-0.22 0.062,-0.273C0.062,-0.327 0.074,-0.375 0.097,-0.417C0.12,-0.459 0.153,-0.492 0.195,-0.516C0.237,-0.539 0.285,-0.551 0.338,-0.551ZM0.338,-0.461C0.304,-0.461 0.274,-0.453 0.247,-0.437C0.22,-0.421 0.198,-0.399 0.183,-0.37C0.168,-0.341 0.16,-0.309 0.16,-0.273C0.16,-0.237 0.168,-0.205 0.183,-0.177C0.198,-0.148 0.22,-0.126 0.247,-0.11C0.274,-0.094 0.304,-0.086 0.338,-0.086C0.372,-0.086 0.403,-0.094 0.43,-0.11C0.456,-0.126 0.478,-0.148 0.493,-0.177C0.507,-0.205 0.515,-0.237 0.515,-0.273C0.515,-0.309 0.507,-0.341 0.493,-0.37C0.478,-0.399 0.456,-0.421 0.43,-0.437C0.403,-0.453 0.372,-0.461 0.338,-0.461Z" style="fill:rgb(128,128,128);fill-rule:nonzero;"/>
            </g>
            <g transform="matrix(42.243,0,0,88.0186,286.748,766.728)">
                <path d="M0.358,-0.553C0.393,-0.553 0.421,-0.548 0.441,-0.537C0.461,-0.526 0.471,-0.513 0.471,-0.497C0.471,-0.492 0.471,-0.489 0.47,-0.487C0.464,-0.466 0.451,-0.455 0.43,-0.455C0.427,-0.455 0.422,-0.456 0.415,-0.457C0.388,-0.462 0.367,-0.464 0.35,-0.464C0.302,-0.464 0.263,-0.453 0.234,-0.431C0.205,-0.409 0.19,-0.379 0.19,-0.342L0.19,-0.05C0.19,-0.034 0.186,-0.022 0.178,-0.013C0.169,-0.004 0.157,0 0.14,0C0.124,0 0.112,-0.004 0.103,-0.013C0.094,-0.021 0.09,-0.033 0.09,-0.05L0.09,-0.497C0.09,-0.513 0.094,-0.525 0.103,-0.534C0.112,-0.543 0.124,-0.547 0.14,-0.547C0.173,-0.547 0.19,-0.53 0.19,-0.497L0.19,-0.478C0.21,-0.501 0.235,-0.52 0.264,-0.533C0.293,-0.546 0.325,-0.553 0.358,-0.553Z" style="fill:rgb(128,128,128);fill-rule:nonzero;"/>
            </g>
            <g transform="matrix(42.243,0,0,88.0186,305.59,766.728)">
                <path d="M0.338,-0.551C0.389,-0.551 0.436,-0.539 0.478,-0.515C0.519,-0.49 0.552,-0.457 0.577,-0.415C0.601,-0.372 0.613,-0.325 0.613,-0.273L0.613,-0.05C0.613,-0.035 0.608,-0.023 0.599,-0.014C0.589,-0.004 0.577,0.001 0.562,0.001C0.547,0.001 0.535,-0.004 0.526,-0.014C0.516,-0.023 0.511,-0.035 0.511,-0.05L0.511,-0.087C0.488,-0.058 0.459,-0.036 0.426,-0.02C0.393,-0.004 0.357,0.004 0.318,0.004C0.27,0.004 0.227,-0.008 0.188,-0.032C0.149,-0.056 0.118,-0.089 0.096,-0.132C0.073,-0.174 0.062,-0.221 0.062,-0.273C0.062,-0.325 0.074,-0.372 0.098,-0.415C0.122,-0.457 0.155,-0.49 0.198,-0.515C0.24,-0.539 0.287,-0.551 0.338,-0.551ZM0.338,-0.086C0.371,-0.086 0.401,-0.094 0.429,-0.111C0.456,-0.127 0.477,-0.149 0.492,-0.178C0.507,-0.206 0.515,-0.238 0.515,-0.273C0.515,-0.308 0.507,-0.34 0.492,-0.369C0.477,-0.398 0.456,-0.42 0.429,-0.437C0.401,-0.453 0.371,-0.461 0.338,-0.461C0.305,-0.461 0.275,-0.453 0.248,-0.437C0.221,-0.42 0.199,-0.398 0.184,-0.369C0.168,-0.34 0.16,-0.308 0.16,-0.273C0.16,-0.238 0.168,-0.206 0.184,-0.178C0.199,-0.149 0.221,-0.127 0.248,-0.111C0.275,-0.094 0.305,-0.086 0.338,-0.086Z" style="fill:rgb(128,128,128);fill-rule:nonzero;"/>
            </g>
            <g transform="matrix(42.243,0,0,88.0186,334.106,766.728)">
                <path d="M0.665,-0.552C0.723,-0.552 0.77,-0.533 0.806,-0.495C0.841,-0.457 0.859,-0.404 0.859,-0.336L0.859,-0.05C0.859,-0.035 0.854,-0.023 0.845,-0.014C0.836,-0.004 0.823,0.001 0.808,0.001C0.793,0.001 0.781,-0.004 0.772,-0.014C0.762,-0.023 0.757,-0.035 0.757,-0.05L0.757,-0.336C0.757,-0.377 0.747,-0.408 0.727,-0.429C0.706,-0.45 0.679,-0.46 0.645,-0.46C0.61,-0.46 0.582,-0.448 0.56,-0.424C0.537,-0.4 0.526,-0.369 0.526,-0.332L0.526,-0.05C0.526,-0.035 0.521,-0.023 0.512,-0.014C0.503,-0.004 0.49,0.001 0.475,0.001C0.46,0.001 0.448,-0.004 0.439,-0.014C0.429,-0.023 0.424,-0.035 0.424,-0.05L0.424,-0.336C0.424,-0.377 0.414,-0.408 0.394,-0.429C0.373,-0.45 0.346,-0.46 0.312,-0.46C0.277,-0.46 0.248,-0.448 0.226,-0.424C0.203,-0.4 0.192,-0.369 0.192,-0.332L0.192,-0.05C0.192,-0.035 0.187,-0.023 0.178,-0.014C0.169,-0.004 0.156,0.001 0.141,0.001C0.126,0.001 0.114,-0.004 0.105,-0.014C0.095,-0.023 0.09,-0.035 0.09,-0.05L0.09,-0.495C0.09,-0.51 0.095,-0.523 0.105,-0.532C0.114,-0.541 0.126,-0.546 0.141,-0.546C0.156,-0.546 0.168,-0.542 0.177,-0.533C0.186,-0.524 0.191,-0.512 0.192,-0.497C0.209,-0.514 0.23,-0.528 0.254,-0.538C0.278,-0.547 0.304,-0.552 0.332,-0.552C0.366,-0.552 0.397,-0.545 0.424,-0.532C0.451,-0.518 0.473,-0.498 0.49,-0.473C0.51,-0.498 0.535,-0.517 0.565,-0.531C0.595,-0.545 0.628,-0.552 0.665,-0.552Z" style="fill:rgb(128,128,128);fill-rule:nonzero;"/>
            </g>
            <g transform="matrix(42.243,0,0,88.0186,373.731,766.728)">
                <path d="M0.581,-0.282C0.581,-0.269 0.577,-0.259 0.568,-0.251C0.559,-0.242 0.548,-0.238 0.535,-0.238L0.155,-0.238C0.162,-0.191 0.184,-0.154 0.219,-0.125C0.254,-0.096 0.296,-0.082 0.347,-0.082C0.367,-0.082 0.388,-0.086 0.41,-0.093C0.431,-0.1 0.449,-0.109 0.463,-0.12C0.472,-0.127 0.483,-0.131 0.496,-0.131C0.509,-0.131 0.519,-0.128 0.526,-0.121C0.538,-0.111 0.544,-0.1 0.544,-0.087C0.544,-0.075 0.539,-0.065 0.528,-0.057C0.505,-0.039 0.477,-0.024 0.444,-0.013C0.41,-0.002 0.378,0.004 0.347,0.004C0.292,0.004 0.243,-0.008 0.2,-0.032C0.157,-0.055 0.123,-0.088 0.099,-0.13C0.074,-0.172 0.062,-0.22 0.062,-0.273C0.062,-0.326 0.074,-0.374 0.097,-0.417C0.12,-0.459 0.152,-0.492 0.193,-0.516C0.234,-0.539 0.28,-0.551 0.332,-0.551C0.383,-0.551 0.428,-0.54 0.465,-0.517C0.502,-0.494 0.531,-0.463 0.551,-0.422C0.571,-0.381 0.581,-0.335 0.581,-0.282ZM0.332,-0.465C0.283,-0.465 0.244,-0.452 0.214,-0.425C0.183,-0.398 0.164,-0.363 0.156,-0.318L0.489,-0.318C0.483,-0.363 0.466,-0.398 0.439,-0.425C0.412,-0.452 0.376,-0.465 0.332,-0.465Z" style="fill:rgb(128,128,128);fill-rule:nonzero;"/>
            </g>
            <g transform="matrix(42.243,0,0,88.0186,399.121,766.728)">
                <path d="M0.562,-0.781C0.577,-0.781 0.59,-0.776 0.599,-0.767C0.608,-0.758 0.613,-0.745 0.613,-0.73L0.613,-0.274C0.613,-0.222 0.601,-0.175 0.577,-0.133C0.552,-0.09 0.519,-0.057 0.478,-0.033C0.436,-0.008 0.389,0.004 0.338,0.004C0.287,0.004 0.24,-0.008 0.198,-0.033C0.155,-0.057 0.122,-0.09 0.098,-0.133C0.074,-0.175 0.062,-0.222 0.062,-0.274C0.062,-0.326 0.073,-0.373 0.096,-0.416C0.118,-0.458 0.149,-0.491 0.188,-0.515C0.227,-0.539 0.27,-0.551 0.318,-0.551C0.357,-0.551 0.393,-0.543 0.426,-0.527C0.459,-0.511 0.488,-0.489 0.511,-0.46L0.511,-0.73C0.511,-0.745 0.516,-0.758 0.526,-0.767C0.535,-0.776 0.547,-0.781 0.562,-0.781ZM0.338,-0.086C0.371,-0.086 0.401,-0.094 0.429,-0.111C0.456,-0.127 0.477,-0.149 0.492,-0.178C0.507,-0.207 0.515,-0.239 0.515,-0.274C0.515,-0.309 0.507,-0.341 0.492,-0.37C0.477,-0.398 0.456,-0.42 0.429,-0.437C0.401,-0.453 0.371,-0.461 0.338,-0.461C0.305,-0.461 0.275,-0.453 0.248,-0.437C0.221,-0.42 0.199,-0.398 0.184,-0.37C0.168,-0.341 0.16,-0.309 0.16,-0.274C0.16,-0.239 0.168,-0.207 0.184,-0.178C0.199,-0.149 0.221,-0.127 0.248,-0.111C0.275,-0.094 0.305,-0.086 0.338,-0.086Z" style="fill:rgb(128,128,128);fill-rule:nonzero;"/>
            </g>
            <g transform="matrix(42.243,0,0,88.0186,428.82,766.728)">
                <path d="M0.1,-0.496C0.1,-0.511 0.105,-0.524 0.115,-0.533C0.124,-0.542 0.136,-0.547 0.151,-0.547C0.166,-0.547 0.179,-0.542 0.188,-0.533C0.197,-0.524 0.202,-0.511 0.202,-0.496L0.202,-0.051C0.202,-0.036 0.197,-0.024 0.188,-0.015C0.179,-0.005 0.166,0 0.151,0C0.136,0 0.124,-0.005 0.115,-0.015C0.105,-0.024 0.1,-0.036 0.1,-0.051L0.1,-0.496ZM0.151,-0.768C0.169,-0.768 0.185,-0.761 0.198,-0.749C0.211,-0.736 0.217,-0.72 0.217,-0.702C0.217,-0.684 0.211,-0.669 0.198,-0.656C0.185,-0.643 0.169,-0.636 0.151,-0.636C0.133,-0.636 0.117,-0.643 0.105,-0.656C0.092,-0.669 0.085,-0.684 0.085,-0.702C0.085,-0.72 0.092,-0.736 0.105,-0.749C0.117,-0.761 0.133,-0.768 0.151,-0.768Z" style="fill:rgb(128,128,128);fill-rule:nonzero;"/>
            </g>
            <g transform="matrix(42.243,0,0,88.0186,441.579,766.728)">
                <path d="M0.338,-0.551C0.389,-0.551 0.436,-0.539 0.478,-0.515C0.519,-0.49 0.552,-0.457 0.577,-0.415C0.601,-0.372 0.613,-0.325 0.613,-0.273L0.613,-0.05C0.613,-0.035 0.608,-0.023 0.599,-0.014C0.589,-0.004 0.577,0.001 0.562,0.001C0.547,0.001 0.535,-0.004 0.526,-0.014C0.516,-0.023 0.511,-0.035 0.511,-0.05L0.511,-0.087C0.488,-0.058 0.459,-0.036 0.426,-0.02C0.393,-0.004 0.357,0.004 0.318,0.004C0.27,0.004 0.227,-0.008 0.188,-0.032C0.149,-0.056 0.118,-0.089 0.096,-0.132C0.073,-0.174 0.062,-0.221 0.062,-0.273C0.062,-0.325 0.074,-0.372 0.098,-0.415C0.122,-0.457 0.155,-0.49 0.198,-0.515C0.24,-0.539 0.287,-0.551 0.338,-0.551ZM0.338,-0.086C0.371,-0.086 0.401,-0.094 0.429,-0.111C0.456,-0.127 0.477,-0.149 0.492,-0.178C0.507,-0.206 0.515,-0.238 0.515,-0.273C0.515,-0.308 0.507,-0.34 0.492,-0.369C0.477,-0.398 0.456,-0.42 0.429,-0.437C0.401,-0.453 0.371,-0.461 0.338,-0.461C0.305,-0.461 0.275,-0.453 0.248,-0.437C0.221,-0.42 0.199,-0.398 0.184,-0.369C0.168,-0.34 0.16,-0.308 0.16,-0.273C0.16,-0.238 0.168,-0.206 0.184,-0.178C0.199,-0.149 0.221,-0.127 0.248,-0.111C0.275,-0.094 0.305,-0.086 0.338,-0.086Z" style="fill:rgb(128,128,128);fill-rule:nonzero;"/>
            </g>
            <g transform="matrix(42.243,0,0,88.0186,470.094,766.728)">
                <path d="M0.119,-0.123C0.138,-0.123 0.154,-0.116 0.168,-0.103C0.181,-0.089 0.188,-0.072 0.188,-0.053C0.188,-0.034 0.181,-0.018 0.168,-0.005C0.155,0.009 0.138,0.016 0.119,0.016C0.1,0.016 0.084,0.009 0.071,-0.005C0.057,-0.018 0.05,-0.034 0.05,-0.053C0.05,-0.072 0.057,-0.089 0.071,-0.103C0.084,-0.116 0.1,-0.123 0.119,-0.123Z" style="fill:rgb(128,128,128);fill-rule:nonzero;"/>
            </g>
            <g transform="matrix(42.243,0,0,88.0186,480.15,766.728)">
                <path d="M0.581,-0.282C0.581,-0.269 0.577,-0.259 0.568,-0.251C0.559,-0.242 0.548,-0.238 0.535,-0.238L0.155,-0.238C0.162,-0.191 0.184,-0.154 0.219,-0.125C0.254,-0.096 0.296,-0.082 0.347,-0.082C0.367,-0.082 0.388,-0.086 0.41,-0.093C0.431,-0.1 0.449,-0.109 0.463,-0.12C0.472,-0.127 0.483,-0.131 0.496,-0.131C0.509,-0.131 0.519,-0.128 0.526,-0.121C0.538,-0.111 0.544,-0.1 0.544,-0.087C0.544,-0.075 0.539,-0.065 0.528,-0.057C0.505,-0.039 0.477,-0.024 0.444,-0.013C0.41,-0.002 0.378,0.004 0.347,0.004C0.292,0.004 0.243,-0.008 0.2,-0.032C0.157,-0.055 0.123,-0.088 0.099,-0.13C0.074,-0.172 0.062,-0.22 0.062,-0.273C0.062,-0.326 0.074,-0.374 0.097,-0.417C0.12,-0.459 0.152,-0.492 0.193,-0.516C0.234,-0.539 0.28,-0.551 0.332,-0.551C0.383,-0.551 0.428,-0.54 0.465,-0.517C0.502,-0.494 0.531,-0.463 0.551,-0.422C0.571,-0.381 0.581,-0.335 0.581,-0.282ZM0.332,-0.465C0.283,-0.465 0.244,-0.452 0.214,-0.425C0.183,-0.398 0.164,-0.363 0.156,-0.318L0.489,-0.318C0.483,-0.363 0.466,-0.398 0.439,-0.425C0.412,-0.452 0.376,-0.465 0.332,-0.465Z" style="fill:rgb(128,128,128);fill-rule:nonzero;"/>
            </g>
            <g transform="matrix(42.243,0,0,88.0186,506.384,766.728)">
                <path d="M0.541,-0.548C0.556,-0.548 0.569,-0.543 0.578,-0.534C0.587,-0.525 0.592,-0.512 0.592,-0.497L0.592,-0.051C0.592,-0.036 0.587,-0.024 0.578,-0.015C0.569,-0.005 0.556,0 0.541,0C0.526,0 0.514,-0.005 0.505,-0.015C0.495,-0.024 0.49,-0.036 0.49,-0.051L0.49,-0.062C0.469,-0.041 0.443,-0.024 0.414,-0.013C0.385,-0.001 0.353,0.005 0.32,0.005C0.274,0.005 0.233,-0.005 0.196,-0.025C0.159,-0.045 0.131,-0.074 0.11,-0.113C0.089,-0.151 0.079,-0.197 0.079,-0.251L0.079,-0.497C0.079,-0.512 0.084,-0.524 0.094,-0.534C0.103,-0.543 0.115,-0.548 0.13,-0.548C0.145,-0.548 0.157,-0.543 0.167,-0.534C0.176,-0.524 0.181,-0.512 0.181,-0.497L0.181,-0.251C0.181,-0.197 0.196,-0.156 0.225,-0.129C0.254,-0.101 0.292,-0.087 0.34,-0.087C0.368,-0.087 0.393,-0.093 0.417,-0.104C0.44,-0.115 0.458,-0.131 0.471,-0.15C0.484,-0.169 0.49,-0.191 0.49,-0.215L0.49,-0.497C0.49,-0.512 0.495,-0.525 0.505,-0.534C0.514,-0.543 0.526,-0.548 0.541,-0.548Z" style="fill:rgb(128,128,128);fill-rule:nonzero;"/>
            </g>
        </g>
    </g>
    <defs>
        <linearGradient id="_Linear1" x1="0" y1="0" x2="1" y2="0" gradientUnits="userSpaceOnUse" gradientTransform="matrix(1,0,0,-1,0,-1.82801)"><stop offset="0" style="stop-color:rgb(53,164,255);stop-opacity:1"/><stop offset="1" style="stop-color:white;stop-opacity:1"/></linearGradient>
    </defs>
</svg>
